<svg width="32" height="58" viewBox="0 0 32 58" fill="none" xmlns="http://www.w3.org/2000/svg">
<path fill-rule="evenodd" clip-rule="evenodd" d="M15.9998 10.5832C16.9391 10.5832 17.8399 10.21 18.5041 9.54584C19.1683 8.88165 19.5415 7.98081 19.5415 7.0415C19.5415 6.1022 19.1683 5.20136 18.5041 4.53717C17.8399 3.87298 16.9391 3.49984 15.9998 3.49984C15.0605 3.49984 14.1597 3.87298 13.4955 4.53717C12.8313 5.20136 12.4581 6.1022 12.4581 7.0415C12.4581 7.98081 12.8313 8.88165 13.4955 9.54584C14.1597 10.21 15.0605 10.5832 15.9998 10.5832ZM15.9998 13.4165C17.6906 13.4165 19.3121 12.7449 20.5076 11.5493C21.7031 10.3538 22.3748 8.73226 22.3748 7.0415C22.3748 5.35075 21.7031 3.72924 20.5076 2.5337C19.3121 1.33815 17.6906 0.666504 15.9998 0.666504C14.309 0.666504 12.6875 1.33815 11.492 2.5337C10.2964 3.72924 9.6248 5.35075 9.6248 7.0415C9.6248 8.73226 10.2964 10.3538 11.492 11.5493C12.6875 12.7449 14.309 13.4165 15.9998 13.4165ZM11.6931 19.0832C9.7523 19.0832 8.43763 20.0253 7.57488 21.2521C6.77588 22.3868 6.30413 23.8432 5.92021 25.1012C5.63688 26.0362 5.58447 26.2317 5.4513 26.7431L5.44705 26.7587C5.26146 27.4713 4.92996 28.7363 3.75413 32.89C3.5643 33.5658 3.94113 34.3747 4.79538 34.6084C5.67371 34.8507 6.4883 34.3223 6.69088 33.6097C7.98005 29.048 8.25771 27.9657 8.39655 27.4245V27.4203C8.50705 26.9882 8.54671 26.8394 8.84138 25.8704C9.23805 24.5671 9.60638 23.523 10.1121 22.8048L10.115 22.7991L10.1277 22.7835L12.519 24.0203L6.90905 44.2998C8.58071 44.7447 11.237 45.2915 16.0012 45.2915C20.6167 45.2915 23.5095 44.7773 25.1061 44.3494L19.482 24.0203L21.8719 22.7793L21.8889 22.8048C22.3946 23.523 22.763 24.5671 23.1596 25.8718C23.4543 26.8408 23.494 26.9882 23.6045 27.4203V27.4245C23.7433 27.9657 24.021 29.0494 25.3101 33.6097C25.5127 34.3223 26.3259 34.8507 27.2056 34.6084C28.0599 34.3747 28.4381 33.5658 28.2469 32.89C27.6686 30.8781 27.1113 28.8602 26.5752 26.8366L26.5497 26.7431C26.4165 26.2317 26.3655 26.0348 26.0808 25.0998C25.6983 23.8432 25.2251 22.3868 24.4261 21.2521C23.562 20.0253 22.2487 19.0832 20.3093 19.0832H11.6931ZM29.172 26.0163C29.3519 26.7048 29.6777 27.9543 30.8479 32.0868C31.0019 32.6262 31.0477 33.1908 30.9824 33.7479C30.9172 34.3051 30.7423 34.8439 30.4679 35.3331C30.1934 35.8224 29.8248 36.2525 29.3833 36.5986C28.9418 36.9447 28.4362 37.2 27.8955 37.3497C27.2827 37.5162 26.6403 37.5434 26.0156 37.429L27.734 43.6411C28.118 45.0294 27.4309 46.6359 25.9349 47.051C24.1045 47.561 20.9411 48.1248 16.0012 48.1248C10.9919 48.1248 8.10896 47.544 6.21913 47.0397C4.71746 46.6388 3.8873 45.0167 4.3038 43.5122L5.9868 37.429C5.3748 37.5423 4.73305 37.5211 4.10546 37.3497C3.56483 37.2 3.05918 36.9447 2.61769 36.5986C2.17619 36.2525 1.80759 35.8224 1.53313 35.3331C1.25867 34.8439 1.08379 34.3051 1.01857 33.7479C0.953346 33.1908 0.999081 32.6262 1.15313 32.0868C2.3233 27.9543 2.64913 26.7063 2.82905 26.0163V26.0121C2.97638 25.4511 3.0373 25.223 3.33621 24.2413C3.7088 23.0187 4.29246 21.1345 5.38896 19.5748C6.67813 17.7402 8.75638 16.2498 11.6931 16.2498H20.3093C23.2446 16.2498 25.3215 17.7402 26.6135 19.5748C27.71 21.1331 28.2922 23.0173 28.6648 24.2413C28.9495 25.1763 29.019 25.427 29.1507 25.9342L29.172 26.0163ZM8.91646 50.2697V55.0495C8.91688 55.564 9.10395 56.0609 9.44296 56.4479C9.78197 56.835 10.2499 57.0859 10.7599 57.154C11.2698 57.2222 11.7872 57.1031 12.216 56.8187C12.6448 56.5343 12.9558 56.104 13.0914 55.6077L14.3961 50.8264C12.5615 50.7321 10.7326 50.5462 8.91646 50.2697ZM19.0173 50.8165L20.3249 55.6077C20.4604 56.104 20.7715 56.5343 21.2003 56.8187C21.629 57.1031 22.1464 57.2222 22.6564 57.154C23.1664 57.0859 23.6343 56.835 23.9733 56.4479C24.3123 56.0609 24.4994 55.564 24.4998 55.0495V50.2498C22.6823 50.5254 20.8527 50.7145 19.0173 50.8165Z" fill="#7E7E7E"/>
</svg>
