<svg width="20" height="20" viewBox="0 0 20 20" fill="none" xmlns="http://www.w3.org/2000/svg">
<path d="M17.7919 9.25008H10.1502V11.5251H15.5752C15.3002 14.7001 12.6586 16.0584 10.1586 16.0584C6.96689 16.0584 4.16689 13.5417 4.16689 10.0001C4.16689 6.58341 6.83356 3.94175 10.1669 3.94175C12.7419 3.94175 14.2502 5.58341 14.2502 5.58341L15.8336 3.93341C15.8336 3.93341 13.8002 1.66675 10.0836 1.66675C5.35023 1.66675 1.69189 5.66675 1.69189 10.0001C1.69189 14.2084 5.13356 18.3334 10.2086 18.3334C14.6669 18.3334 17.9169 15.2751 17.9169 10.7584C17.9169 9.80008 17.7919 9.25008 17.7919 9.25008Z" fill="#3B434D"/>
</svg>
