<svg width="21" height="20" viewBox="0 0 21 20" fill="none" xmlns="http://www.w3.org/2000/svg">
<path d="M17.1665 3.33325H3.83317C2.9165 3.33325 2.17484 4.08325 2.17484 4.99992L2.1665 14.9999C2.1665 15.9166 2.9165 16.6666 3.83317 16.6666H17.1665C18.0832 16.6666 18.8332 15.9166 18.8332 14.9999V4.99992C18.8332 4.08325 18.0832 3.33325 17.1665 3.33325ZM16.8332 6.87492L10.9415 10.5583C10.6748 10.7249 10.3248 10.7249 10.0582 10.5583L4.1665 6.87492C4.08294 6.82801 4.00977 6.76464 3.95141 6.68863C3.89305 6.61262 3.85072 6.52557 3.82698 6.43273C3.80324 6.33989 3.79859 6.2432 3.8133 6.14851C3.82801 6.05382 3.86178 5.9631 3.91257 5.88184C3.96336 5.80058 4.03011 5.73046 4.10878 5.67575C4.18744 5.62103 4.2764 5.58284 4.37025 5.5635C4.4641 5.54416 4.56091 5.54406 4.6548 5.56321C4.74869 5.58236 4.83772 5.62036 4.9165 5.67492L10.4998 9.16658L16.0832 5.67492C16.162 5.62036 16.251 5.58236 16.3449 5.56321C16.4388 5.54406 16.5356 5.54416 16.6294 5.5635C16.7233 5.58284 16.8122 5.62103 16.8909 5.67575C16.9696 5.73046 17.0363 5.80058 17.0871 5.88184C17.1379 5.9631 17.1717 6.05382 17.1864 6.14851C17.2011 6.2432 17.1964 6.33989 17.1727 6.43273C17.149 6.52557 17.1066 6.61262 17.0483 6.68863C16.9899 6.76464 16.9167 6.82801 16.8332 6.87492Z" fill="#3B434D"/>
</svg>
