<svg width="32" height="57" viewBox="0 0 32 57" fill="none" xmlns="http://www.w3.org/2000/svg">
<path fill-rule="evenodd" clip-rule="evenodd" d="M22.3749 6.5415C22.3749 8.23226 21.7032 9.85376 20.5077 11.0493C19.3122 12.2449 17.6906 12.9165 15.9999 12.9165C14.3091 12.9165 12.6876 12.2449 11.4921 11.0493C10.2965 9.85376 9.62489 8.23226 9.62489 6.5415C9.62489 4.85075 10.2965 3.22924 11.4921 2.0337C12.6876 0.838154 14.3091 0.166504 15.9999 0.166504C17.6906 0.166504 19.3122 0.838154 20.5077 2.0337C21.7032 3.22924 22.3749 4.85075 22.3749 6.5415ZM19.5416 6.5415C19.5416 7.48081 19.1684 8.38165 18.5042 9.04584C17.84 9.71003 16.9392 10.0832 15.9999 10.0832C15.0606 10.0832 14.1597 9.71003 13.4956 9.04584C12.8314 8.38165 12.4582 7.48081 12.4582 6.5415C12.4582 5.6022 12.8314 4.70136 13.4956 4.03717C14.1597 3.37298 15.0606 2.99984 15.9999 2.99984C16.9392 2.99984 17.84 3.37298 18.5042 4.03717C19.1684 4.70136 19.5416 5.6022 19.5416 6.5415ZM10.3006 15.7498C8.65731 15.7498 7.02389 16.121 5.55198 17.0135C4.08289 17.9018 3.02606 19.1527 2.28939 20.524C0.893977 23.1165 0.504395 26.3975 0.504395 29.67V29.7947C0.504395 29.8372 0.506283 29.8787 0.510061 29.9193L0.521395 30.044C0.529895 30.1503 0.536978 30.5073 0.528478 31.3473L0.521395 31.9367V31.9395C0.514311 32.5798 0.504395 33.342 0.504395 34.1665C0.504302 34.8386 0.663622 35.5012 0.969272 36.0998C1.27492 36.6984 1.71819 37.216 2.26268 37.61C2.80717 38.0041 3.43735 38.2634 4.1015 38.3666C4.76564 38.4699 5.4448 38.4142 6.08323 38.204V52.5832C6.08178 53.6779 6.50283 54.731 7.25865 55.523C8.01447 56.315 9.04674 56.7847 10.1404 56.8344C11.234 56.8841 12.3046 56.5098 13.1291 55.7896C13.9536 55.0695 14.4684 54.0589 14.5662 52.9685L15.7591 39.8332H16.2379L17.4321 52.9685C17.5259 54.0622 18.0391 55.0771 18.8644 55.8009C19.6896 56.5246 20.7629 56.901 21.8594 56.8512C22.956 56.8014 23.9907 56.3293 24.747 55.5337C25.5032 54.7381 25.9223 53.6808 25.9166 52.5832V38.1757C26.5578 38.4024 27.244 38.4719 27.9177 38.3784C28.5913 38.2848 29.2327 38.031 29.7879 37.6382C30.3431 37.2454 30.7959 36.7251 31.1083 36.121C31.4207 35.5169 31.5836 34.8466 31.5832 34.1665C31.5832 33.3448 31.5733 32.5827 31.5662 31.9423V31.9367L31.5591 31.3473C31.5506 30.5073 31.5563 30.1503 31.5662 30.044L31.5776 29.9193L31.5832 29.7947V29.67C31.5832 26.3975 31.1922 23.1179 29.7982 20.524C29.0616 19.1541 28.0047 17.9018 26.5356 17.0135C25.0623 16.121 23.4303 15.7498 21.7856 15.7498H10.3006ZM4.75439 35.5832C5.0437 35.5833 5.32612 35.4949 5.56368 35.3298C5.80124 35.1646 5.98255 34.9307 6.08323 34.6595V24.9582H8.91656V52.5832C8.91632 52.948 9.05685 53.2989 9.30886 53.5627C9.56088 53.8265 9.90495 53.9829 10.2694 53.9993C10.6339 54.0158 10.9906 53.8909 11.2654 53.6509C11.5401 53.4108 11.7116 53.074 11.7442 52.7107L13.0561 38.289C13.0879 37.937 13.2501 37.6096 13.5109 37.3711C13.7717 37.1326 14.1122 37.0002 14.4656 36.9998H17.5341C17.8878 36.9998 18.2287 37.1321 18.4898 37.3706C18.7509 37.6092 18.9133 37.9368 18.9451 38.289L20.2556 52.7107C20.2882 53.074 20.4597 53.4108 20.7344 53.6509C21.0092 53.8909 21.3659 54.0158 21.7304 53.9993C22.0948 53.9829 22.4389 53.8265 22.6909 53.5627C22.9429 53.2989 23.0835 52.948 23.0832 52.5832V24.9582H25.9166V34.1991C25.9209 34.5748 26.0743 34.9334 26.343 35.196C26.6117 35.4587 26.9738 35.6038 27.3495 35.5995C27.7252 35.5951 28.0839 35.4417 28.3465 35.173C28.6091 34.9043 28.7542 34.5422 28.7499 34.1665C28.7499 33.3604 28.74 32.6138 28.7329 31.9707V31.9537L28.7258 31.3771C28.7109 30.8496 28.717 30.3217 28.7442 29.7947L28.7499 29.7323V29.67C28.7499 26.5363 28.3603 23.8319 27.3021 21.8656C26.7609 20.8583 26.0285 20.0183 25.068 19.4374C24.1075 18.8552 22.9996 18.5832 21.7856 18.5832H10.3006C9.08798 18.5832 7.98014 18.8552 7.01823 19.4374C6.05773 20.0183 5.32673 20.8583 4.78414 21.8656C3.72731 23.8319 3.33773 26.5363 3.33773 29.6714V29.7323L3.34339 29.7947C3.36748 30.0709 3.37031 30.588 3.36181 31.3771L3.35473 31.9707C3.34764 32.6124 3.33773 33.3604 3.33773 34.1665C3.33773 34.5422 3.48698 34.9026 3.75266 35.1682C4.01834 35.4339 4.37867 35.5832 4.75439 35.5832Z" fill="#7E7E7E"/>
</svg>
