<svg width="12" height="12" viewBox="0 0 12 12" fill="none" xmlns="http://www.w3.org/2000/svg">
<g clip-path="url(#clip0_182_6841)">
<path d="M7.64455 7.33848C7.57117 7.31448 7.10732 7.10541 7.39717 6.22433H7.39301C8.14855 5.44618 8.72593 4.19402 8.72593 2.96125C8.72593 1.06571 7.46547 0.0720215 6.00055 0.0720215C4.5347 0.0720215 3.28117 1.06525 3.28117 2.96125C3.28117 4.1991 3.85532 5.45633 4.61547 6.23264C4.91178 7.00987 4.38194 7.29833 4.27117 7.33894C2.73701 7.89371 0.937012 8.90495 0.937012 9.90325V10.2776C0.937012 11.6377 3.57424 11.9469 6.01486 11.9469C8.45917 11.9469 11.0632 11.6377 11.0632 10.2776V9.90325C11.0632 8.87495 9.2544 7.87156 7.64455 7.33848Z" fill="#3B434D"/>
</g>
<defs>
<clipPath id="clip0_182_6841">
<rect width="12" height="12" fill="white"/>
</clipPath>
</defs>
</svg>
